<?xml version="1.0" encoding="iso-8859-1"?>
<!-- Generator: Adobe Illustrator 19.0.0, SVG Export Plug-In . SVG Version: 6.00 Build 0)  -->
<svg version="1.1" id="Capa_1" xmlns="http://www.w3.org/2000/svg" xmlns:xlink="http://www.w3.org/1999/xlink" x="0px" y="0px"
	 viewBox="0 0 394.4 394.4" style="enable-background:new 0 0 394.4 394.4;" xml:space="preserve">
<path style="fill:#F9F0DC;" d="M292.4,130.8c0-52.8-42.8-95.2-95.2-95.2S102,78,102,130.8c-52.8,0-95.2,42.8-95.2,95.2
	c0,52.8,42.4,95.2,95.2,95.2h171.2l52-5.6c36.4-13.2,62.8-48.4,62.8-89.6C387.6,173.6,345.2,130.8,292.4,130.8z"/>
<path style="fill:#FFC30E;" d="M233.6,281.6l71.2,71.2c8,8,20.8,8,28.8,0l0,0c8-8,8-20.8,0-28.8l-70-69.6L233.6,281.6z"/>
<circle style="fill:#F1A900;" cx="197.2" cy="211.6" r="78.8"/>
<circle style="fill:#F9F0DC;" cx="197.2" cy="211.6" r="50.4"/>
<g>
	<path style="fill:#3D1F20;" d="M394.4,226c0-54-42.4-98.4-95.6-101.6c-3.2-53.2-47.6-95.6-101.6-95.6S98.8,71.2,95.6,124.4
		C42.4,127.6,0,172,0,226c0,56,45.6,102,102,102h168.4l29.6,29.6c5.2,5.2,12,8,19.2,8s14-2.8,19.2-8s8-12,8-19.2s-2.8-14-8-19.2
		l-1.6-1.6C371.6,300.8,394.4,265.2,394.4,226z M328.8,348.4c-5.2,5.2-14.4,5.2-19.6,0l-31.6-31.6l0,0L244,283.2
		c7.6-5.2,14.8-11.6,20.4-18.8l64.4,64.4c2.8,2.8,4,6,4,9.6C332.8,342,331.6,345.6,328.8,348.4z M197.2,284
		c-40,0-72.4-32.4-72.4-72.4s32.4-72.4,72.4-72.4s72.4,32.4,72.4,72.4S237.2,284,197.2,284z M326.8,308L272,253.2
		c6.8-12.4,10.8-26.4,10.8-41.2c0-47.2-38.4-85.6-85.6-85.6s-85.6,38.4-85.6,85.6c0,46.8,38.4,85.2,85.6,85.2
		c12.4,0,24.4-2.8,34.8-7.6l25.2,25.2H102c-48.8,0-88.8-40-88.8-88.8s40-88.8,88.8-88.8c3.6,0,6.4-2.8,6.4-6.4
		C108.4,82,148,42,197.2,42S286,81.6,286,130.8c0,3.6,2.8,6.4,6.4,6.4c48.8,0,88.8,40,88.8,88.8C381.2,261.6,359.2,294,326.8,308z"
		/>
	<path style="fill:#3D1F20;" d="M197.2,154.8c-31.6,0-57.2,25.6-57.2,57.2s25.6,57.2,57.2,57.2s57.2-25.6,57.2-57.2
		S228.8,154.8,197.2,154.8z M197.2,255.6c-24.4,0-44-19.6-44-44s19.6-44,44-44s44,19.6,44,44S221.6,255.6,197.2,255.6z"/>
	<path style="fill:#3D1F20;" d="M192.8,64.4c-3.6,0-6.4,2.8-6.4,6.4c0,3.6,2.8,6.4,6.4,6.4c34.8,0,63.2,28.4,63.2,63.2
		c0,3.6,2.8,6.4,6.4,6.4s6.4-2.8,6.4-6.4C268.8,98.8,234.8,64.4,192.8,64.4z"/>
</g>
<g>
</g>
<g>
</g>
<g>
</g>
<g>
</g>
<g>
</g>
<g>
</g>
<g>
</g>
<g>
</g>
<g>
</g>
<g>
</g>
<g>
</g>
<g>
</g>
<g>
</g>
<g>
</g>
<g>
</g>
</svg>
